<mxfile host="app.diagrams.net" modified="2021-12-03T08:05:43.256Z" agent="5.0 (Windows NT 10.0; Win64; x64) AppleWebKit/537.36 (KHTML, like Gecko) Chrome/96.0.4664.55 Safari/537.36 Edg/96.0.1054.41" etag="BFH-mfuiPs0UZhYGnAdn" version="15.8.9" type="github">
  <diagram id="bjdQnDNKgYiiLzswyzzY" name="Page-1">
    <mxGraphModel dx="1133" dy="668" grid="1" gridSize="10" guides="1" tooltips="1" connect="1" arrows="1" fold="1" page="1" pageScale="1" pageWidth="827" pageHeight="1169" math="0" shadow="0">
      <root>
        <mxCell id="0" />
        <mxCell id="1" parent="0" />
        <mxCell id="2vkrT1zlOW-2Hi5jGVI8-37" value="" style="rounded=1;whiteSpace=wrap;html=1;strokeWidth=2;fillWeight=4;hachureGap=8;hachureAngle=45;fillColor=none;sketch=1;" vertex="1" parent="1">
          <mxGeometry x="60" y="40" width="560" height="430" as="geometry" />
        </mxCell>
        <mxCell id="2vkrT1zlOW-2Hi5jGVI8-64" value="" style="rounded=1;whiteSpace=wrap;html=1;strokeWidth=2;fillWeight=4;hachureGap=8;hachureAngle=45;fillColor=none;sketch=1;" vertex="1" parent="1">
          <mxGeometry x="60" y="520" width="560" height="430" as="geometry" />
        </mxCell>
        <mxCell id="2vkrT1zlOW-2Hi5jGVI8-9" value="AbstractProduct" style="swimlane;fontStyle=1;align=center;verticalAlign=top;childLayout=stackLayout;horizontal=1;startSize=26;horizontalStack=0;resizeParent=1;resizeParentMax=0;resizeLast=0;collapsible=1;marginBottom=0;" vertex="1" parent="1">
          <mxGeometry x="260" y="90" width="160" height="60" as="geometry" />
        </mxCell>
        <mxCell id="2vkrT1zlOW-2Hi5jGVI8-11" value="" style="line;strokeWidth=1;fillColor=none;align=left;verticalAlign=middle;spacingTop=-1;spacingLeft=3;spacingRight=3;rotatable=0;labelPosition=right;points=[];portConstraint=eastwest;" vertex="1" parent="2vkrT1zlOW-2Hi5jGVI8-9">
          <mxGeometry y="26" width="160" height="8" as="geometry" />
        </mxCell>
        <mxCell id="2vkrT1zlOW-2Hi5jGVI8-12" value="+ Func()" style="text;strokeColor=none;fillColor=none;align=left;verticalAlign=top;spacingLeft=4;spacingRight=4;overflow=hidden;rotatable=0;points=[[0,0.5],[1,0.5]];portConstraint=eastwest;" vertex="1" parent="2vkrT1zlOW-2Hi5jGVI8-9">
          <mxGeometry y="34" width="160" height="26" as="geometry" />
        </mxCell>
        <mxCell id="2vkrT1zlOW-2Hi5jGVI8-19" style="edgeStyle=orthogonalEdgeStyle;rounded=0;orthogonalLoop=1;jettySize=auto;html=1;entryX=0;entryY=0.5;entryDx=0;entryDy=0;endArrow=block;endFill=0;" edge="1" parent="1" source="2vkrT1zlOW-2Hi5jGVI8-14" target="2vkrT1zlOW-2Hi5jGVI8-12">
          <mxGeometry relative="1" as="geometry" />
        </mxCell>
        <mxCell id="2vkrT1zlOW-2Hi5jGVI8-14" value="ConcreteProductA" style="swimlane;fontStyle=1;align=center;verticalAlign=top;childLayout=stackLayout;horizontal=1;startSize=26;horizontalStack=0;resizeParent=1;resizeParentMax=0;resizeLast=0;collapsible=1;marginBottom=0;" vertex="1" parent="1">
          <mxGeometry x="110" y="190" width="160" height="60" as="geometry">
            <mxRectangle x="290" y="160" width="140" height="26" as="alternateBounds" />
          </mxGeometry>
        </mxCell>
        <mxCell id="2vkrT1zlOW-2Hi5jGVI8-15" value="" style="line;strokeWidth=1;fillColor=none;align=left;verticalAlign=middle;spacingTop=-1;spacingLeft=3;spacingRight=3;rotatable=0;labelPosition=right;points=[];portConstraint=eastwest;" vertex="1" parent="2vkrT1zlOW-2Hi5jGVI8-14">
          <mxGeometry y="26" width="160" height="8" as="geometry" />
        </mxCell>
        <mxCell id="2vkrT1zlOW-2Hi5jGVI8-16" value="+ Func()" style="text;strokeColor=none;fillColor=none;align=left;verticalAlign=top;spacingLeft=4;spacingRight=4;overflow=hidden;rotatable=0;points=[[0,0.5],[1,0.5]];portConstraint=eastwest;" vertex="1" parent="2vkrT1zlOW-2Hi5jGVI8-14">
          <mxGeometry y="34" width="160" height="26" as="geometry" />
        </mxCell>
        <mxCell id="2vkrT1zlOW-2Hi5jGVI8-29" style="edgeStyle=orthogonalEdgeStyle;rounded=0;orthogonalLoop=1;jettySize=auto;html=1;exitX=0.5;exitY=0;exitDx=0;exitDy=0;entryX=1;entryY=0.5;entryDx=0;entryDy=0;endArrow=block;endFill=0;" edge="1" parent="1" source="2vkrT1zlOW-2Hi5jGVI8-20" target="2vkrT1zlOW-2Hi5jGVI8-12">
          <mxGeometry relative="1" as="geometry" />
        </mxCell>
        <mxCell id="2vkrT1zlOW-2Hi5jGVI8-20" value="ConcreteProductB" style="swimlane;fontStyle=1;align=center;verticalAlign=top;childLayout=stackLayout;horizontal=1;startSize=26;horizontalStack=0;resizeParent=1;resizeParentMax=0;resizeLast=0;collapsible=1;marginBottom=0;" vertex="1" parent="1">
          <mxGeometry x="410" y="190" width="160" height="60" as="geometry">
            <mxRectangle x="290" y="160" width="140" height="26" as="alternateBounds" />
          </mxGeometry>
        </mxCell>
        <mxCell id="2vkrT1zlOW-2Hi5jGVI8-21" value="" style="line;strokeWidth=1;fillColor=none;align=left;verticalAlign=middle;spacingTop=-1;spacingLeft=3;spacingRight=3;rotatable=0;labelPosition=right;points=[];portConstraint=eastwest;" vertex="1" parent="2vkrT1zlOW-2Hi5jGVI8-20">
          <mxGeometry y="26" width="160" height="8" as="geometry" />
        </mxCell>
        <mxCell id="2vkrT1zlOW-2Hi5jGVI8-22" value="+ Func()" style="text;strokeColor=none;fillColor=none;align=left;verticalAlign=top;spacingLeft=4;spacingRight=4;overflow=hidden;rotatable=0;points=[[0,0.5],[1,0.5]];portConstraint=eastwest;" vertex="1" parent="2vkrT1zlOW-2Hi5jGVI8-20">
          <mxGeometry y="34" width="160" height="26" as="geometry" />
        </mxCell>
        <mxCell id="2vkrT1zlOW-2Hi5jGVI8-28" style="edgeStyle=orthogonalEdgeStyle;rounded=0;orthogonalLoop=1;jettySize=auto;html=1;exitX=0.5;exitY=0;exitDx=0;exitDy=0;entryX=0.498;entryY=1.037;entryDx=0;entryDy=0;entryPerimeter=0;endArrow=block;endFill=0;" edge="1" parent="1" source="2vkrT1zlOW-2Hi5jGVI8-23" target="2vkrT1zlOW-2Hi5jGVI8-12">
          <mxGeometry relative="1" as="geometry" />
        </mxCell>
        <mxCell id="2vkrT1zlOW-2Hi5jGVI8-23" value="ConcreteProductC" style="swimlane;fontStyle=1;align=center;verticalAlign=top;childLayout=stackLayout;horizontal=1;startSize=26;horizontalStack=0;resizeParent=1;resizeParentMax=0;resizeLast=0;collapsible=1;marginBottom=0;" vertex="1" parent="1">
          <mxGeometry x="260" y="260" width="160" height="60" as="geometry">
            <mxRectangle x="290" y="160" width="140" height="26" as="alternateBounds" />
          </mxGeometry>
        </mxCell>
        <mxCell id="2vkrT1zlOW-2Hi5jGVI8-24" value="" style="line;strokeWidth=1;fillColor=none;align=left;verticalAlign=middle;spacingTop=-1;spacingLeft=3;spacingRight=3;rotatable=0;labelPosition=right;points=[];portConstraint=eastwest;" vertex="1" parent="2vkrT1zlOW-2Hi5jGVI8-23">
          <mxGeometry y="26" width="160" height="8" as="geometry" />
        </mxCell>
        <mxCell id="2vkrT1zlOW-2Hi5jGVI8-25" value="+ Func()" style="text;strokeColor=none;fillColor=none;align=left;verticalAlign=top;spacingLeft=4;spacingRight=4;overflow=hidden;rotatable=0;points=[[0,0.5],[1,0.5]];portConstraint=eastwest;" vertex="1" parent="2vkrT1zlOW-2Hi5jGVI8-23">
          <mxGeometry y="34" width="160" height="26" as="geometry" />
        </mxCell>
        <mxCell id="2vkrT1zlOW-2Hi5jGVI8-33" style="edgeStyle=orthogonalEdgeStyle;rounded=0;orthogonalLoop=1;jettySize=auto;html=1;exitX=0.5;exitY=0;exitDx=0;exitDy=0;entryX=0.5;entryY=1;entryDx=0;entryDy=0;entryPerimeter=0;endArrow=openThin;endFill=0;dashed=1;" edge="1" parent="1" source="2vkrT1zlOW-2Hi5jGVI8-30" target="2vkrT1zlOW-2Hi5jGVI8-16">
          <mxGeometry relative="1" as="geometry">
            <Array as="points">
              <mxPoint x="340" y="350" />
              <mxPoint x="190" y="350" />
            </Array>
          </mxGeometry>
        </mxCell>
        <mxCell id="2vkrT1zlOW-2Hi5jGVI8-34" style="edgeStyle=orthogonalEdgeStyle;rounded=0;orthogonalLoop=1;jettySize=auto;html=1;exitX=0.5;exitY=0;exitDx=0;exitDy=0;entryX=0.499;entryY=0.997;entryDx=0;entryDy=0;entryPerimeter=0;dashed=1;endArrow=openThin;endFill=0;" edge="1" parent="1" source="2vkrT1zlOW-2Hi5jGVI8-30" target="2vkrT1zlOW-2Hi5jGVI8-22">
          <mxGeometry relative="1" as="geometry">
            <Array as="points">
              <mxPoint x="340" y="350" />
              <mxPoint x="490" y="350" />
              <mxPoint x="490" y="250" />
            </Array>
          </mxGeometry>
        </mxCell>
        <mxCell id="2vkrT1zlOW-2Hi5jGVI8-35" style="edgeStyle=orthogonalEdgeStyle;rounded=0;orthogonalLoop=1;jettySize=auto;html=1;exitX=0.5;exitY=0;exitDx=0;exitDy=0;entryX=0.501;entryY=0.978;entryDx=0;entryDy=0;entryPerimeter=0;dashed=1;endArrow=openThin;endFill=0;" edge="1" parent="1" source="2vkrT1zlOW-2Hi5jGVI8-30" target="2vkrT1zlOW-2Hi5jGVI8-25">
          <mxGeometry relative="1" as="geometry" />
        </mxCell>
        <mxCell id="2vkrT1zlOW-2Hi5jGVI8-30" value="Client" style="swimlane;fontStyle=1;align=center;verticalAlign=top;childLayout=stackLayout;horizontal=1;startSize=26;horizontalStack=0;resizeParent=1;resizeParentMax=0;resizeLast=0;collapsible=1;marginBottom=0;" vertex="1" parent="1">
          <mxGeometry x="260" y="380" width="160" height="60" as="geometry">
            <mxRectangle x="290" y="160" width="140" height="26" as="alternateBounds" />
          </mxGeometry>
        </mxCell>
        <mxCell id="2vkrT1zlOW-2Hi5jGVI8-31" value="" style="line;strokeWidth=1;fillColor=none;align=left;verticalAlign=middle;spacingTop=-1;spacingLeft=3;spacingRight=3;rotatable=0;labelPosition=right;points=[];portConstraint=eastwest;" vertex="1" parent="2vkrT1zlOW-2Hi5jGVI8-30">
          <mxGeometry y="26" width="160" height="8" as="geometry" />
        </mxCell>
        <mxCell id="2vkrT1zlOW-2Hi5jGVI8-32" value="+ Creat()" style="text;strokeColor=none;fillColor=none;align=left;verticalAlign=top;spacingLeft=4;spacingRight=4;overflow=hidden;rotatable=0;points=[[0,0.5],[1,0.5]];portConstraint=eastwest;" vertex="1" parent="2vkrT1zlOW-2Hi5jGVI8-30">
          <mxGeometry y="34" width="160" height="26" as="geometry" />
        </mxCell>
        <mxCell id="2vkrT1zlOW-2Hi5jGVI8-42" value="&lt;b&gt;&lt;font style=&quot;font-size: 15px&quot;&gt;Factory pattern&lt;/font&gt;&lt;/b&gt;" style="text;html=1;align=center;verticalAlign=middle;resizable=0;points=[];autosize=1;strokeColor=none;fillColor=none;" vertex="1" parent="1">
          <mxGeometry x="90" y="60" width="120" height="20" as="geometry" />
        </mxCell>
        <mxCell id="2vkrT1zlOW-2Hi5jGVI8-43" value="AbstractProduct" style="swimlane;fontStyle=1;align=center;verticalAlign=top;childLayout=stackLayout;horizontal=1;startSize=26;horizontalStack=0;resizeParent=1;resizeParentMax=0;resizeLast=0;collapsible=1;marginBottom=0;" vertex="1" parent="1">
          <mxGeometry x="260" y="560" width="160" height="74" as="geometry" />
        </mxCell>
        <mxCell id="2vkrT1zlOW-2Hi5jGVI8-44" value="" style="line;strokeWidth=1;fillColor=none;align=left;verticalAlign=middle;spacingTop=-1;spacingLeft=3;spacingRight=3;rotatable=0;labelPosition=right;points=[];portConstraint=eastwest;" vertex="1" parent="2vkrT1zlOW-2Hi5jGVI8-43">
          <mxGeometry y="26" width="160" height="8" as="geometry" />
        </mxCell>
        <mxCell id="2vkrT1zlOW-2Hi5jGVI8-45" value="+ Func()&#xa;+ static Creat()" style="text;strokeColor=none;fillColor=none;align=left;verticalAlign=top;spacingLeft=4;spacingRight=4;overflow=hidden;rotatable=0;points=[[0,0.5],[1,0.5]];portConstraint=eastwest;" vertex="1" parent="2vkrT1zlOW-2Hi5jGVI8-43">
          <mxGeometry y="34" width="160" height="40" as="geometry" />
        </mxCell>
        <mxCell id="2vkrT1zlOW-2Hi5jGVI8-46" style="edgeStyle=orthogonalEdgeStyle;rounded=0;orthogonalLoop=1;jettySize=auto;html=1;entryX=0;entryY=0.5;entryDx=0;entryDy=0;endArrow=block;endFill=0;" edge="1" parent="1" source="2vkrT1zlOW-2Hi5jGVI8-47" target="2vkrT1zlOW-2Hi5jGVI8-45">
          <mxGeometry relative="1" as="geometry" />
        </mxCell>
        <mxCell id="2vkrT1zlOW-2Hi5jGVI8-47" value="ConcreteProductA" style="swimlane;fontStyle=1;align=center;verticalAlign=top;childLayout=stackLayout;horizontal=1;startSize=26;horizontalStack=0;resizeParent=1;resizeParentMax=0;resizeLast=0;collapsible=1;marginBottom=0;" vertex="1" parent="1">
          <mxGeometry x="110" y="670" width="160" height="60" as="geometry">
            <mxRectangle x="290" y="160" width="140" height="26" as="alternateBounds" />
          </mxGeometry>
        </mxCell>
        <mxCell id="2vkrT1zlOW-2Hi5jGVI8-48" value="" style="line;strokeWidth=1;fillColor=none;align=left;verticalAlign=middle;spacingTop=-1;spacingLeft=3;spacingRight=3;rotatable=0;labelPosition=right;points=[];portConstraint=eastwest;" vertex="1" parent="2vkrT1zlOW-2Hi5jGVI8-47">
          <mxGeometry y="26" width="160" height="8" as="geometry" />
        </mxCell>
        <mxCell id="2vkrT1zlOW-2Hi5jGVI8-49" value="+ Func()" style="text;strokeColor=none;fillColor=none;align=left;verticalAlign=top;spacingLeft=4;spacingRight=4;overflow=hidden;rotatable=0;points=[[0,0.5],[1,0.5]];portConstraint=eastwest;" vertex="1" parent="2vkrT1zlOW-2Hi5jGVI8-47">
          <mxGeometry y="34" width="160" height="26" as="geometry" />
        </mxCell>
        <mxCell id="2vkrT1zlOW-2Hi5jGVI8-50" style="edgeStyle=orthogonalEdgeStyle;rounded=0;orthogonalLoop=1;jettySize=auto;html=1;exitX=0.5;exitY=0;exitDx=0;exitDy=0;entryX=1;entryY=0.5;entryDx=0;entryDy=0;endArrow=block;endFill=0;" edge="1" parent="1" source="2vkrT1zlOW-2Hi5jGVI8-51" target="2vkrT1zlOW-2Hi5jGVI8-45">
          <mxGeometry relative="1" as="geometry" />
        </mxCell>
        <mxCell id="2vkrT1zlOW-2Hi5jGVI8-51" value="ConcreteProductB" style="swimlane;fontStyle=1;align=center;verticalAlign=top;childLayout=stackLayout;horizontal=1;startSize=26;horizontalStack=0;resizeParent=1;resizeParentMax=0;resizeLast=0;collapsible=1;marginBottom=0;" vertex="1" parent="1">
          <mxGeometry x="410" y="670" width="160" height="60" as="geometry">
            <mxRectangle x="290" y="160" width="140" height="26" as="alternateBounds" />
          </mxGeometry>
        </mxCell>
        <mxCell id="2vkrT1zlOW-2Hi5jGVI8-52" value="" style="line;strokeWidth=1;fillColor=none;align=left;verticalAlign=middle;spacingTop=-1;spacingLeft=3;spacingRight=3;rotatable=0;labelPosition=right;points=[];portConstraint=eastwest;" vertex="1" parent="2vkrT1zlOW-2Hi5jGVI8-51">
          <mxGeometry y="26" width="160" height="8" as="geometry" />
        </mxCell>
        <mxCell id="2vkrT1zlOW-2Hi5jGVI8-53" value="+ Func()" style="text;strokeColor=none;fillColor=none;align=left;verticalAlign=top;spacingLeft=4;spacingRight=4;overflow=hidden;rotatable=0;points=[[0,0.5],[1,0.5]];portConstraint=eastwest;" vertex="1" parent="2vkrT1zlOW-2Hi5jGVI8-51">
          <mxGeometry y="34" width="160" height="26" as="geometry" />
        </mxCell>
        <mxCell id="2vkrT1zlOW-2Hi5jGVI8-54" style="edgeStyle=orthogonalEdgeStyle;rounded=0;orthogonalLoop=1;jettySize=auto;html=1;exitX=0.5;exitY=0;exitDx=0;exitDy=0;entryX=0.498;entryY=1.037;entryDx=0;entryDy=0;entryPerimeter=0;endArrow=block;endFill=0;" edge="1" parent="1" source="2vkrT1zlOW-2Hi5jGVI8-55" target="2vkrT1zlOW-2Hi5jGVI8-45">
          <mxGeometry relative="1" as="geometry">
            <Array as="points">
              <mxPoint x="340" y="636" />
            </Array>
          </mxGeometry>
        </mxCell>
        <mxCell id="2vkrT1zlOW-2Hi5jGVI8-55" value="ConcreteProductC" style="swimlane;fontStyle=1;align=center;verticalAlign=top;childLayout=stackLayout;horizontal=1;startSize=26;horizontalStack=0;resizeParent=1;resizeParentMax=0;resizeLast=0;collapsible=1;marginBottom=0;" vertex="1" parent="1">
          <mxGeometry x="260" y="740" width="160" height="60" as="geometry">
            <mxRectangle x="290" y="160" width="140" height="26" as="alternateBounds" />
          </mxGeometry>
        </mxCell>
        <mxCell id="2vkrT1zlOW-2Hi5jGVI8-56" value="" style="line;strokeWidth=1;fillColor=none;align=left;verticalAlign=middle;spacingTop=-1;spacingLeft=3;spacingRight=3;rotatable=0;labelPosition=right;points=[];portConstraint=eastwest;" vertex="1" parent="2vkrT1zlOW-2Hi5jGVI8-55">
          <mxGeometry y="26" width="160" height="8" as="geometry" />
        </mxCell>
        <mxCell id="2vkrT1zlOW-2Hi5jGVI8-57" value="+ Func()" style="text;strokeColor=none;fillColor=none;align=left;verticalAlign=top;spacingLeft=4;spacingRight=4;overflow=hidden;rotatable=0;points=[[0,0.5],[1,0.5]];portConstraint=eastwest;" vertex="1" parent="2vkrT1zlOW-2Hi5jGVI8-55">
          <mxGeometry y="34" width="160" height="26" as="geometry" />
        </mxCell>
        <mxCell id="2vkrT1zlOW-2Hi5jGVI8-58" style="edgeStyle=orthogonalEdgeStyle;rounded=0;orthogonalLoop=1;jettySize=auto;html=1;exitX=0.5;exitY=0;exitDx=0;exitDy=0;entryX=0.5;entryY=1;entryDx=0;entryDy=0;entryPerimeter=0;endArrow=openThin;endFill=0;dashed=1;" edge="1" parent="1" source="2vkrT1zlOW-2Hi5jGVI8-61" target="2vkrT1zlOW-2Hi5jGVI8-49">
          <mxGeometry relative="1" as="geometry">
            <Array as="points">
              <mxPoint x="340" y="830" />
              <mxPoint x="190" y="830" />
            </Array>
          </mxGeometry>
        </mxCell>
        <mxCell id="2vkrT1zlOW-2Hi5jGVI8-59" style="edgeStyle=orthogonalEdgeStyle;rounded=0;orthogonalLoop=1;jettySize=auto;html=1;exitX=0.5;exitY=0;exitDx=0;exitDy=0;entryX=0.499;entryY=0.997;entryDx=0;entryDy=0;entryPerimeter=0;dashed=1;endArrow=openThin;endFill=0;" edge="1" parent="1" source="2vkrT1zlOW-2Hi5jGVI8-61" target="2vkrT1zlOW-2Hi5jGVI8-53">
          <mxGeometry relative="1" as="geometry">
            <Array as="points">
              <mxPoint x="340" y="830" />
              <mxPoint x="490" y="830" />
              <mxPoint x="490" y="730" />
            </Array>
          </mxGeometry>
        </mxCell>
        <mxCell id="2vkrT1zlOW-2Hi5jGVI8-60" style="edgeStyle=orthogonalEdgeStyle;rounded=0;orthogonalLoop=1;jettySize=auto;html=1;exitX=0.5;exitY=0;exitDx=0;exitDy=0;entryX=0.501;entryY=0.978;entryDx=0;entryDy=0;entryPerimeter=0;dashed=1;endArrow=openThin;endFill=0;" edge="1" parent="1" source="2vkrT1zlOW-2Hi5jGVI8-61" target="2vkrT1zlOW-2Hi5jGVI8-57">
          <mxGeometry relative="1" as="geometry" />
        </mxCell>
        <mxCell id="2vkrT1zlOW-2Hi5jGVI8-61" value="Client" style="swimlane;fontStyle=1;align=center;verticalAlign=top;childLayout=stackLayout;horizontal=1;startSize=26;horizontalStack=0;resizeParent=1;resizeParentMax=0;resizeLast=0;collapsible=1;marginBottom=0;" vertex="1" parent="1">
          <mxGeometry x="260" y="860" width="160" height="60" as="geometry">
            <mxRectangle x="290" y="160" width="140" height="26" as="alternateBounds" />
          </mxGeometry>
        </mxCell>
        <mxCell id="2vkrT1zlOW-2Hi5jGVI8-62" value="" style="line;strokeWidth=1;fillColor=none;align=left;verticalAlign=middle;spacingTop=-1;spacingLeft=3;spacingRight=3;rotatable=0;labelPosition=right;points=[];portConstraint=eastwest;" vertex="1" parent="2vkrT1zlOW-2Hi5jGVI8-61">
          <mxGeometry y="26" width="160" height="8" as="geometry" />
        </mxCell>
        <mxCell id="2vkrT1zlOW-2Hi5jGVI8-63" value="+ AbstractProduct::Creat()" style="text;strokeColor=none;fillColor=none;align=left;verticalAlign=top;spacingLeft=4;spacingRight=4;overflow=hidden;rotatable=0;points=[[0,0.5],[1,0.5]];portConstraint=eastwest;" vertex="1" parent="2vkrT1zlOW-2Hi5jGVI8-61">
          <mxGeometry y="34" width="160" height="26" as="geometry" />
        </mxCell>
        <mxCell id="2vkrT1zlOW-2Hi5jGVI8-65" value="&lt;b&gt;&lt;font style=&quot;font-size: 15px&quot;&gt;Factory pattern&lt;/font&gt;&lt;/b&gt;" style="text;html=1;align=center;verticalAlign=middle;resizable=0;points=[];autosize=1;strokeColor=none;fillColor=none;" vertex="1" parent="1">
          <mxGeometry x="90" y="540" width="120" height="20" as="geometry" />
        </mxCell>
        <mxCell id="2vkrT1zlOW-2Hi5jGVI8-66" value="" style="rounded=1;whiteSpace=wrap;html=1;strokeWidth=2;fillWeight=4;hachureGap=8;hachureAngle=45;fillColor=none;sketch=1;" vertex="1" parent="1">
          <mxGeometry x="60" y="1010" width="560" height="430" as="geometry" />
        </mxCell>
        <mxCell id="2vkrT1zlOW-2Hi5jGVI8-67" value="AbstractProduct" style="swimlane;fontStyle=1;align=center;verticalAlign=top;childLayout=stackLayout;horizontal=1;startSize=26;horizontalStack=0;resizeParent=1;resizeParentMax=0;resizeLast=0;collapsible=1;marginBottom=0;" vertex="1" parent="1">
          <mxGeometry x="260" y="1060" width="160" height="60" as="geometry" />
        </mxCell>
        <mxCell id="2vkrT1zlOW-2Hi5jGVI8-68" value="" style="line;strokeWidth=1;fillColor=none;align=left;verticalAlign=middle;spacingTop=-1;spacingLeft=3;spacingRight=3;rotatable=0;labelPosition=right;points=[];portConstraint=eastwest;" vertex="1" parent="2vkrT1zlOW-2Hi5jGVI8-67">
          <mxGeometry y="26" width="160" height="8" as="geometry" />
        </mxCell>
        <mxCell id="2vkrT1zlOW-2Hi5jGVI8-69" value="+ Func()" style="text;strokeColor=none;fillColor=none;align=left;verticalAlign=top;spacingLeft=4;spacingRight=4;overflow=hidden;rotatable=0;points=[[0,0.5],[1,0.5]];portConstraint=eastwest;" vertex="1" parent="2vkrT1zlOW-2Hi5jGVI8-67">
          <mxGeometry y="34" width="160" height="26" as="geometry" />
        </mxCell>
        <mxCell id="2vkrT1zlOW-2Hi5jGVI8-70" style="edgeStyle=orthogonalEdgeStyle;rounded=0;orthogonalLoop=1;jettySize=auto;html=1;entryX=0;entryY=0.5;entryDx=0;entryDy=0;endArrow=block;endFill=0;" edge="1" parent="1" source="2vkrT1zlOW-2Hi5jGVI8-71" target="2vkrT1zlOW-2Hi5jGVI8-69">
          <mxGeometry relative="1" as="geometry" />
        </mxCell>
        <mxCell id="2vkrT1zlOW-2Hi5jGVI8-71" value="ConcreteProductA" style="swimlane;fontStyle=1;align=center;verticalAlign=top;childLayout=stackLayout;horizontal=1;startSize=26;horizontalStack=0;resizeParent=1;resizeParentMax=0;resizeLast=0;collapsible=1;marginBottom=0;" vertex="1" parent="1">
          <mxGeometry x="110" y="1160" width="160" height="60" as="geometry">
            <mxRectangle x="290" y="160" width="140" height="26" as="alternateBounds" />
          </mxGeometry>
        </mxCell>
        <mxCell id="2vkrT1zlOW-2Hi5jGVI8-72" value="" style="line;strokeWidth=1;fillColor=none;align=left;verticalAlign=middle;spacingTop=-1;spacingLeft=3;spacingRight=3;rotatable=0;labelPosition=right;points=[];portConstraint=eastwest;" vertex="1" parent="2vkrT1zlOW-2Hi5jGVI8-71">
          <mxGeometry y="26" width="160" height="8" as="geometry" />
        </mxCell>
        <mxCell id="2vkrT1zlOW-2Hi5jGVI8-73" value="+ Func()" style="text;strokeColor=none;fillColor=none;align=left;verticalAlign=top;spacingLeft=4;spacingRight=4;overflow=hidden;rotatable=0;points=[[0,0.5],[1,0.5]];portConstraint=eastwest;" vertex="1" parent="2vkrT1zlOW-2Hi5jGVI8-71">
          <mxGeometry y="34" width="160" height="26" as="geometry" />
        </mxCell>
        <mxCell id="2vkrT1zlOW-2Hi5jGVI8-74" style="edgeStyle=orthogonalEdgeStyle;rounded=0;orthogonalLoop=1;jettySize=auto;html=1;exitX=0.5;exitY=0;exitDx=0;exitDy=0;entryX=1;entryY=0.5;entryDx=0;entryDy=0;endArrow=block;endFill=0;" edge="1" parent="1" source="2vkrT1zlOW-2Hi5jGVI8-75" target="2vkrT1zlOW-2Hi5jGVI8-69">
          <mxGeometry relative="1" as="geometry" />
        </mxCell>
        <mxCell id="2vkrT1zlOW-2Hi5jGVI8-75" value="ConcreteProductB" style="swimlane;fontStyle=1;align=center;verticalAlign=top;childLayout=stackLayout;horizontal=1;startSize=26;horizontalStack=0;resizeParent=1;resizeParentMax=0;resizeLast=0;collapsible=1;marginBottom=0;" vertex="1" parent="1">
          <mxGeometry x="410" y="1160" width="160" height="60" as="geometry">
            <mxRectangle x="290" y="160" width="140" height="26" as="alternateBounds" />
          </mxGeometry>
        </mxCell>
        <mxCell id="2vkrT1zlOW-2Hi5jGVI8-76" value="" style="line;strokeWidth=1;fillColor=none;align=left;verticalAlign=middle;spacingTop=-1;spacingLeft=3;spacingRight=3;rotatable=0;labelPosition=right;points=[];portConstraint=eastwest;" vertex="1" parent="2vkrT1zlOW-2Hi5jGVI8-75">
          <mxGeometry y="26" width="160" height="8" as="geometry" />
        </mxCell>
        <mxCell id="2vkrT1zlOW-2Hi5jGVI8-77" value="+ Func()" style="text;strokeColor=none;fillColor=none;align=left;verticalAlign=top;spacingLeft=4;spacingRight=4;overflow=hidden;rotatable=0;points=[[0,0.5],[1,0.5]];portConstraint=eastwest;" vertex="1" parent="2vkrT1zlOW-2Hi5jGVI8-75">
          <mxGeometry y="34" width="160" height="26" as="geometry" />
        </mxCell>
        <mxCell id="2vkrT1zlOW-2Hi5jGVI8-78" style="edgeStyle=orthogonalEdgeStyle;rounded=0;orthogonalLoop=1;jettySize=auto;html=1;exitX=0.5;exitY=0;exitDx=0;exitDy=0;entryX=0.498;entryY=1.037;entryDx=0;entryDy=0;entryPerimeter=0;endArrow=block;endFill=0;" edge="1" parent="1" source="2vkrT1zlOW-2Hi5jGVI8-79" target="2vkrT1zlOW-2Hi5jGVI8-69">
          <mxGeometry relative="1" as="geometry" />
        </mxCell>
        <mxCell id="2vkrT1zlOW-2Hi5jGVI8-79" value="ConcreteProductC" style="swimlane;fontStyle=1;align=center;verticalAlign=top;childLayout=stackLayout;horizontal=1;startSize=26;horizontalStack=0;resizeParent=1;resizeParentMax=0;resizeLast=0;collapsible=1;marginBottom=0;" vertex="1" parent="1">
          <mxGeometry x="260" y="1230" width="160" height="60" as="geometry">
            <mxRectangle x="290" y="160" width="140" height="26" as="alternateBounds" />
          </mxGeometry>
        </mxCell>
        <mxCell id="2vkrT1zlOW-2Hi5jGVI8-80" value="" style="line;strokeWidth=1;fillColor=none;align=left;verticalAlign=middle;spacingTop=-1;spacingLeft=3;spacingRight=3;rotatable=0;labelPosition=right;points=[];portConstraint=eastwest;" vertex="1" parent="2vkrT1zlOW-2Hi5jGVI8-79">
          <mxGeometry y="26" width="160" height="8" as="geometry" />
        </mxCell>
        <mxCell id="2vkrT1zlOW-2Hi5jGVI8-81" value="+ Func()" style="text;strokeColor=none;fillColor=none;align=left;verticalAlign=top;spacingLeft=4;spacingRight=4;overflow=hidden;rotatable=0;points=[[0,0.5],[1,0.5]];portConstraint=eastwest;" vertex="1" parent="2vkrT1zlOW-2Hi5jGVI8-79">
          <mxGeometry y="34" width="160" height="26" as="geometry" />
        </mxCell>
        <mxCell id="2vkrT1zlOW-2Hi5jGVI8-82" style="edgeStyle=orthogonalEdgeStyle;rounded=0;orthogonalLoop=1;jettySize=auto;html=1;exitX=0.5;exitY=0;exitDx=0;exitDy=0;entryX=0.5;entryY=1;entryDx=0;entryDy=0;entryPerimeter=0;endArrow=openThin;endFill=0;dashed=1;" edge="1" parent="1" source="2vkrT1zlOW-2Hi5jGVI8-85" target="2vkrT1zlOW-2Hi5jGVI8-73">
          <mxGeometry relative="1" as="geometry">
            <Array as="points">
              <mxPoint x="340" y="1320" />
              <mxPoint x="190" y="1320" />
            </Array>
          </mxGeometry>
        </mxCell>
        <mxCell id="2vkrT1zlOW-2Hi5jGVI8-83" style="edgeStyle=orthogonalEdgeStyle;rounded=0;orthogonalLoop=1;jettySize=auto;html=1;exitX=0.5;exitY=0;exitDx=0;exitDy=0;entryX=0.499;entryY=0.997;entryDx=0;entryDy=0;entryPerimeter=0;dashed=1;endArrow=openThin;endFill=0;" edge="1" parent="1" source="2vkrT1zlOW-2Hi5jGVI8-85" target="2vkrT1zlOW-2Hi5jGVI8-77">
          <mxGeometry relative="1" as="geometry">
            <Array as="points">
              <mxPoint x="340" y="1320" />
              <mxPoint x="490" y="1320" />
              <mxPoint x="490" y="1220" />
            </Array>
          </mxGeometry>
        </mxCell>
        <mxCell id="2vkrT1zlOW-2Hi5jGVI8-84" style="edgeStyle=orthogonalEdgeStyle;rounded=0;orthogonalLoop=1;jettySize=auto;html=1;exitX=0.5;exitY=0;exitDx=0;exitDy=0;entryX=0.501;entryY=0.978;entryDx=0;entryDy=0;entryPerimeter=0;dashed=1;endArrow=openThin;endFill=0;" edge="1" parent="1" source="2vkrT1zlOW-2Hi5jGVI8-85" target="2vkrT1zlOW-2Hi5jGVI8-81">
          <mxGeometry relative="1" as="geometry" />
        </mxCell>
        <mxCell id="2vkrT1zlOW-2Hi5jGVI8-85" value="Client" style="swimlane;fontStyle=1;align=center;verticalAlign=top;childLayout=stackLayout;horizontal=1;startSize=26;horizontalStack=0;resizeParent=1;resizeParentMax=0;resizeLast=0;collapsible=1;marginBottom=0;" vertex="1" parent="1">
          <mxGeometry x="260" y="1350" width="160" height="60" as="geometry">
            <mxRectangle x="290" y="160" width="140" height="26" as="alternateBounds" />
          </mxGeometry>
        </mxCell>
        <mxCell id="2vkrT1zlOW-2Hi5jGVI8-86" value="" style="line;strokeWidth=1;fillColor=none;align=left;verticalAlign=middle;spacingTop=-1;spacingLeft=3;spacingRight=3;rotatable=0;labelPosition=right;points=[];portConstraint=eastwest;" vertex="1" parent="2vkrT1zlOW-2Hi5jGVI8-85">
          <mxGeometry y="26" width="160" height="8" as="geometry" />
        </mxCell>
        <mxCell id="2vkrT1zlOW-2Hi5jGVI8-87" value="+ Creat()" style="text;strokeColor=none;fillColor=none;align=left;verticalAlign=top;spacingLeft=4;spacingRight=4;overflow=hidden;rotatable=0;points=[[0,0.5],[1,0.5]];portConstraint=eastwest;" vertex="1" parent="2vkrT1zlOW-2Hi5jGVI8-85">
          <mxGeometry y="34" width="160" height="26" as="geometry" />
        </mxCell>
        <mxCell id="2vkrT1zlOW-2Hi5jGVI8-88" value="&lt;b&gt;&lt;font style=&quot;font-size: 15px&quot;&gt;Factory pattern&lt;/font&gt;&lt;/b&gt;" style="text;html=1;align=center;verticalAlign=middle;resizable=0;points=[];autosize=1;strokeColor=none;fillColor=none;" vertex="1" parent="1">
          <mxGeometry x="90" y="1030" width="120" height="20" as="geometry" />
        </mxCell>
      </root>
    </mxGraphModel>
  </diagram>
</mxfile>
